<mxfile host="Electron" modified="2023-08-19T17:30:12.614Z" agent="Mozilla/5.0 (Windows NT 10.0; Win64; x64) AppleWebKit/537.36 (KHTML, like Gecko) draw.io/21.6.8 Chrome/114.0.5735.289 Electron/25.5.0 Safari/537.36" etag="HwOSc4jCkk2mcCxCpxru" version="21.6.8" type="device">
  <diagram name="Página-1" id="X6ioy-qMzLfvXQCmyu6J">
    <mxGraphModel dx="830" dy="570" grid="1" gridSize="10" guides="1" tooltips="1" connect="1" arrows="1" fold="1" page="1" pageScale="1" pageWidth="700" pageHeight="480" math="0" shadow="0">
      <root>
        <mxCell id="0" />
        <mxCell id="1" parent="0" />
        <mxCell id="V5_xUwaxZERaxGhv1Ljz-114" value="«device»&lt;br&gt;(UPB #1)" style="verticalAlign=top;align=left;spacingTop=8;spacingLeft=2;spacingRight=12;shape=cube;size=10;direction=south;fontStyle=4;html=1;whiteSpace=wrap;" parent="1" vertex="1">
          <mxGeometry x="280" y="65.05000000000001" width="340" height="195" as="geometry" />
        </mxCell>
        <mxCell id="V5_xUwaxZERaxGhv1Ljz-85" value="" style="image;aspect=fixed;html=1;points=[];align=center;fontSize=12;image=img/lib/azure2/networking/DNS_Zones.svg;" parent="1" vertex="1">
          <mxGeometry x="177" y="185.04999999999995" width="40" height="40" as="geometry" />
        </mxCell>
        <mxCell id="V5_xUwaxZERaxGhv1Ljz-86" value="" style="group" parent="1" vertex="1" connectable="0">
          <mxGeometry x="20" y="87.05000000000001" width="140" height="170" as="geometry" />
        </mxCell>
        <mxCell id="V5_xUwaxZERaxGhv1Ljz-87" value="" style="group" parent="V5_xUwaxZERaxGhv1Ljz-86" vertex="1" connectable="0">
          <mxGeometry width="140" height="170" as="geometry" />
        </mxCell>
        <mxCell id="V5_xUwaxZERaxGhv1Ljz-88" value="" style="group" parent="V5_xUwaxZERaxGhv1Ljz-87" vertex="1" connectable="0">
          <mxGeometry width="140" height="170" as="geometry" />
        </mxCell>
        <mxCell id="V5_xUwaxZERaxGhv1Ljz-89" value="«device»&lt;br&gt;&lt;b&gt;PC&lt;/b&gt;" style="verticalAlign=top;align=left;spacingTop=8;spacingLeft=2;spacingRight=12;shape=cube;size=10;direction=south;fontStyle=4;html=1;whiteSpace=wrap;" parent="V5_xUwaxZERaxGhv1Ljz-88" vertex="1">
          <mxGeometry width="140" height="170" as="geometry" />
        </mxCell>
        <mxCell id="V5_xUwaxZERaxGhv1Ljz-90" value="" style="shape=mxgraph.cisco.computers_and_peripherals.pc;html=1;pointerEvents=1;dashed=0;fillColor=#036897;strokeColor=#ffffff;strokeWidth=2;verticalLabelPosition=bottom;verticalAlign=top;align=center;outlineConnect=0;" parent="V5_xUwaxZERaxGhv1Ljz-88" vertex="1">
          <mxGeometry x="51.6764705882353" y="12.952380952380953" width="49.41176470588235" height="40.476190476190474" as="geometry" />
        </mxCell>
        <mxCell id="V5_xUwaxZERaxGhv1Ljz-91" value="«web browser»&lt;br&gt;&lt;i&gt;CSR&lt;/i&gt;" style="html=1;dropTarget=0;whiteSpace=wrap;" parent="V5_xUwaxZERaxGhv1Ljz-88" vertex="1">
          <mxGeometry x="16.47058823529412" y="64.99666666666667" width="107.05882352941177" height="64.76190476190476" as="geometry" />
        </mxCell>
        <mxCell id="V5_xUwaxZERaxGhv1Ljz-92" value="" style="shape=module;jettyWidth=8;jettyHeight=4;" parent="V5_xUwaxZERaxGhv1Ljz-91" vertex="1">
          <mxGeometry x="1" width="20" height="20" relative="1" as="geometry">
            <mxPoint x="-23" y="2" as="offset" />
          </mxGeometry>
        </mxCell>
        <mxCell id="V5_xUwaxZERaxGhv1Ljz-93" value="" style="group" parent="1" vertex="1" connectable="0">
          <mxGeometry x="158" y="137.05" width="80" height="40" as="geometry" />
        </mxCell>
        <mxCell id="V5_xUwaxZERaxGhv1Ljz-94" style="edgeStyle=orthogonalEdgeStyle;rounded=0;orthogonalLoop=1;jettySize=auto;html=1;entryX=0.1;entryY=0.5;entryDx=0;entryDy=0;entryPerimeter=0;endArrow=none;endFill=0;strokeWidth=2;" parent="V5_xUwaxZERaxGhv1Ljz-93" target="V5_xUwaxZERaxGhv1Ljz-84" edge="1">
          <mxGeometry relative="1" as="geometry">
            <mxPoint x="2" y="40" as="sourcePoint" />
          </mxGeometry>
        </mxCell>
        <mxCell id="V5_xUwaxZERaxGhv1Ljz-95" value="«protocol»&lt;br&gt;HTTP" style="text;html=1;align=center;verticalAlign=middle;resizable=0;points=[];autosize=1;strokeColor=none;fillColor=none;" parent="V5_xUwaxZERaxGhv1Ljz-93" vertex="1">
          <mxGeometry y="-2" width="80" height="40" as="geometry" />
        </mxCell>
        <mxCell id="V5_xUwaxZERaxGhv1Ljz-122" style="edgeStyle=orthogonalEdgeStyle;rounded=0;orthogonalLoop=1;jettySize=auto;html=1;exitX=0.5;exitY=0;exitDx=0;exitDy=0;entryX=0;entryY=0;entryDx=0;entryDy=0;entryPerimeter=0;dashed=1;" parent="1" edge="1">
          <mxGeometry relative="1" as="geometry">
            <mxPoint x="271" y="152.05" as="sourcePoint" />
            <mxPoint x="155" y="87.05000000000001" as="targetPoint" />
            <Array as="points">
              <mxPoint x="271" y="87.05000000000001" />
            </Array>
          </mxGeometry>
        </mxCell>
        <mxCell id="V5_xUwaxZERaxGhv1Ljz-123" value="Access token" style="edgeLabel;html=1;align=center;verticalAlign=middle;resizable=0;points=[];" parent="V5_xUwaxZERaxGhv1Ljz-122" vertex="1" connectable="0">
          <mxGeometry x="0.411" y="-3" relative="1" as="geometry">
            <mxPoint x="-2" y="-10" as="offset" />
          </mxGeometry>
        </mxCell>
        <mxCell id="V5_xUwaxZERaxGhv1Ljz-168" style="rounded=0;orthogonalLoop=1;jettySize=auto;html=1;exitX=0.399;exitY=1.011;exitDx=0;exitDy=0;endArrow=none;endFill=0;exitPerimeter=0;entryX=0.007;entryY=0.401;entryDx=0;entryDy=0;entryPerimeter=0;strokeWidth=2;" parent="1" source="V5_xUwaxZERaxGhv1Ljz-84" target="V5_xUwaxZERaxGhv1Ljz-115" edge="1">
          <mxGeometry relative="1" as="geometry">
            <mxPoint x="276.1724137931035" y="290.04999999999995" as="targetPoint" />
          </mxGeometry>
        </mxCell>
        <mxCell id="V5_xUwaxZERaxGhv1Ljz-173" style="rounded=0;orthogonalLoop=1;jettySize=auto;html=1;exitX=1;exitY=0.5;exitDx=0;exitDy=0;entryX=0.098;entryY=0.895;entryDx=0;entryDy=0;entryPerimeter=0;endArrow=none;endFill=0;" parent="1" source="V5_xUwaxZERaxGhv1Ljz-84" target="V5_xUwaxZERaxGhv1Ljz-117" edge="1">
          <mxGeometry relative="1" as="geometry" />
        </mxCell>
        <mxCell id="V5_xUwaxZERaxGhv1Ljz-84" value="&lt;font size=&quot;1&quot; style=&quot;&quot;&gt;&lt;b style=&quot;font-size: 15px;&quot;&gt;NGINX&lt;/b&gt;&lt;/font&gt;" style="shape=module;align=left;spacingLeft=20;align=center;verticalAlign=top;whiteSpace=wrap;html=1;fillColor=#dae8fc;strokeColor=#6c8ebf;" parent="1" vertex="1">
          <mxGeometry x="226" y="152.05" width="100" height="50" as="geometry" />
        </mxCell>
        <mxCell id="V5_xUwaxZERaxGhv1Ljz-115" value="«device»&lt;br&gt;(UPB #2)" style="verticalAlign=top;align=left;spacingTop=8;spacingLeft=2;spacingRight=12;shape=cube;size=10;direction=south;fontStyle=4;html=1;whiteSpace=wrap;" parent="1" vertex="1">
          <mxGeometry x="146" y="292.04999999999995" width="200" height="160" as="geometry" />
        </mxCell>
        <mxCell id="V5_xUwaxZERaxGhv1Ljz-133" style="rounded=0;orthogonalLoop=1;jettySize=auto;html=1;exitX=1;exitY=0.75;exitDx=0;exitDy=0;entryX=0.478;entryY=1.001;entryDx=0;entryDy=0;entryPerimeter=0;endArrow=none;endFill=0;" parent="1" source="V5_xUwaxZERaxGhv1Ljz-117" target="V5_xUwaxZERaxGhv1Ljz-126" edge="1">
          <mxGeometry relative="1" as="geometry" />
        </mxCell>
        <mxCell id="V5_xUwaxZERaxGhv1Ljz-174" style="edgeStyle=orthogonalEdgeStyle;rounded=0;orthogonalLoop=1;jettySize=auto;html=1;exitX=0.589;exitY=0.971;exitDx=0;exitDy=0;entryX=0;entryY=0;entryDx=0;entryDy=50;entryPerimeter=0;exitPerimeter=0;endArrow=none;endFill=0;" parent="1" source="V5_xUwaxZERaxGhv1Ljz-117" target="V5_xUwaxZERaxGhv1Ljz-156" edge="1">
          <mxGeometry relative="1" as="geometry" />
        </mxCell>
        <mxCell id="V5_xUwaxZERaxGhv1Ljz-117" value="&lt;font size=&quot;1&quot; style=&quot;&quot;&gt;&lt;b style=&quot;font-size: 13px;&quot;&gt;KEYCLOAK&lt;br&gt;(auth)&lt;br&gt;&lt;/b&gt;&lt;/font&gt;" style="shape=module;align=left;spacingLeft=20;align=center;verticalAlign=top;whiteSpace=wrap;html=1;" parent="1" vertex="1">
          <mxGeometry x="360" y="132.05" width="100" height="50" as="geometry" />
        </mxCell>
        <mxCell id="V5_xUwaxZERaxGhv1Ljz-121" style="edgeStyle=orthogonalEdgeStyle;rounded=0;orthogonalLoop=1;jettySize=auto;html=1;exitX=0;exitY=0;exitDx=0;exitDy=0;exitPerimeter=0;entryX=0.25;entryY=0;entryDx=0;entryDy=0;dashed=1;" parent="1" source="V5_xUwaxZERaxGhv1Ljz-89" target="V5_xUwaxZERaxGhv1Ljz-84" edge="1">
          <mxGeometry relative="1" as="geometry">
            <Array as="points">
              <mxPoint x="160" y="110.05000000000001" />
              <mxPoint x="251" y="110.05000000000001" />
            </Array>
          </mxGeometry>
        </mxCell>
        <mxCell id="V5_xUwaxZERaxGhv1Ljz-124" value="Auth&amp;nbsp;" style="edgeLabel;html=1;align=center;verticalAlign=middle;resizable=0;points=[];" parent="V5_xUwaxZERaxGhv1Ljz-121" vertex="1" connectable="0">
          <mxGeometry x="-0.1667" y="3" relative="1" as="geometry">
            <mxPoint y="10" as="offset" />
          </mxGeometry>
        </mxCell>
        <mxCell id="V5_xUwaxZERaxGhv1Ljz-125" value="" style="group" parent="1" vertex="1" connectable="0">
          <mxGeometry x="480" y="118.26000000000005" width="120" height="107.58" as="geometry" />
        </mxCell>
        <mxCell id="V5_xUwaxZERaxGhv1Ljz-126" value="«OS»&lt;br&gt;Ubuntu server" style="verticalAlign=top;align=left;spacingTop=8;spacingLeft=2;spacingRight=12;shape=cube;size=10;direction=south;fontStyle=4;html=1;whiteSpace=wrap;" parent="V5_xUwaxZERaxGhv1Ljz-125" vertex="1">
          <mxGeometry width="120" height="107.58" as="geometry" />
        </mxCell>
        <mxCell id="V5_xUwaxZERaxGhv1Ljz-127" value="NEXT.JS&lt;br&gt;&lt;span style=&quot;font-weight: normal;&quot;&gt;&lt;font style=&quot;font-size: 10px;&quot;&gt;&lt;i&gt;SSR&lt;/i&gt;&lt;/font&gt;&lt;/span&gt;" style="shape=folder;fontStyle=1;spacingTop=10;tabWidth=40;tabHeight=14;tabPosition=left;html=1;whiteSpace=wrap;" parent="V5_xUwaxZERaxGhv1Ljz-125" vertex="1">
          <mxGeometry x="20" y="50" width="72" height="46.92" as="geometry" />
        </mxCell>
        <mxCell id="V5_xUwaxZERaxGhv1Ljz-139" style="edgeStyle=orthogonalEdgeStyle;rounded=0;orthogonalLoop=1;jettySize=auto;html=1;exitX=0.25;exitY=1;exitDx=0;exitDy=0;entryX=1;entryY=0.757;entryDx=0;entryDy=0;entryPerimeter=0;dashed=1;" parent="1" source="V5_xUwaxZERaxGhv1Ljz-84" target="V5_xUwaxZERaxGhv1Ljz-89" edge="1">
          <mxGeometry relative="1" as="geometry">
            <mxPoint x="709.9999999999998" y="197.04999999999995" as="sourcePoint" />
            <Array as="points">
              <mxPoint x="250" y="202.04999999999995" />
              <mxPoint x="250" y="280.04999999999995" />
              <mxPoint x="54" y="280.04999999999995" />
            </Array>
          </mxGeometry>
        </mxCell>
        <mxCell id="V5_xUwaxZERaxGhv1Ljz-140" value="Res JSON" style="edgeLabel;html=1;align=center;verticalAlign=middle;resizable=0;points=[];" parent="V5_xUwaxZERaxGhv1Ljz-139" vertex="1" connectable="0">
          <mxGeometry x="0.1253" y="1" relative="1" as="geometry">
            <mxPoint as="offset" />
          </mxGeometry>
        </mxCell>
        <mxCell id="V5_xUwaxZERaxGhv1Ljz-142" value="" style="group" parent="1" vertex="1" connectable="0">
          <mxGeometry x="203.9959509830195" y="311.0503348822948" width="110" height="62.926164464215695" as="geometry" />
        </mxCell>
        <mxCell id="V5_xUwaxZERaxGhv1Ljz-143" value="" style="group" parent="V5_xUwaxZERaxGhv1Ljz-142" vertex="1" connectable="0">
          <mxGeometry width="110" height="62.926164464215695" as="geometry" />
        </mxCell>
        <mxCell id="V5_xUwaxZERaxGhv1Ljz-144" value="«Express server»" style="verticalAlign=top;align=left;spacingTop=8;spacingLeft=2;spacingRight=12;shape=cube;size=10;direction=south;fontStyle=4;html=1;whiteSpace=wrap;" parent="V5_xUwaxZERaxGhv1Ljz-143" vertex="1">
          <mxGeometry y="0.9532484970494554" width="110.00000000000001" height="62.926164464215695" as="geometry" />
        </mxCell>
        <mxCell id="V5_xUwaxZERaxGhv1Ljz-145" value="«resources»" style="html=1;whiteSpace=wrap;" parent="V5_xUwaxZERaxGhv1Ljz-143" vertex="1">
          <mxGeometry x="11.252747252747255" y="31.70100560554916" width="79.78021978021981" height="24.471286180528335" as="geometry" />
        </mxCell>
        <mxCell id="V5_xUwaxZERaxGhv1Ljz-146" value="" style="group" parent="1" vertex="1" connectable="0">
          <mxGeometry x="190" y="381.1823446391812" width="130" height="65.87" as="geometry" />
        </mxCell>
        <mxCell id="V5_xUwaxZERaxGhv1Ljz-147" value="«database system»" style="verticalAlign=top;align=left;spacingTop=8;spacingLeft=2;spacingRight=12;shape=cube;size=10;direction=south;fontStyle=4;html=1;whiteSpace=wrap;" parent="V5_xUwaxZERaxGhv1Ljz-146" vertex="1">
          <mxGeometry y="0.54" width="130" height="65.33" as="geometry" />
        </mxCell>
        <mxCell id="V5_xUwaxZERaxGhv1Ljz-148" value="«schema»&lt;br&gt;resources" style="html=1;whiteSpace=wrap;" parent="V5_xUwaxZERaxGhv1Ljz-146" vertex="1">
          <mxGeometry x="7" y="31.92" width="103" height="28.47" as="geometry" />
        </mxCell>
        <mxCell id="V5_xUwaxZERaxGhv1Ljz-155" value="" style="group" parent="1" vertex="1" connectable="0">
          <mxGeometry x="360" y="189.3699999999999" width="130" height="65.35" as="geometry" />
        </mxCell>
        <mxCell id="V5_xUwaxZERaxGhv1Ljz-156" value="&lt;font style=&quot;font-size: 10px;&quot;&gt;«database system»&lt;/font&gt;" style="verticalAlign=top;align=left;spacingTop=8;spacingLeft=2;spacingRight=12;shape=cube;size=10;direction=south;fontStyle=4;html=1;whiteSpace=wrap;" parent="V5_xUwaxZERaxGhv1Ljz-155" vertex="1">
          <mxGeometry y="10" width="110" height="50" as="geometry" />
        </mxCell>
        <mxCell id="V5_xUwaxZERaxGhv1Ljz-157" value="«schema users»" style="html=1;whiteSpace=wrap;" parent="V5_xUwaxZERaxGhv1Ljz-155" vertex="1">
          <mxGeometry x="4.477144646211647" y="40.461546949820544" width="92.18847839699436" height="16.540632391251403" as="geometry" />
        </mxCell>
        <mxCell id="V5_xUwaxZERaxGhv1Ljz-171" style="edgeStyle=orthogonalEdgeStyle;rounded=0;orthogonalLoop=1;jettySize=auto;html=1;exitX=0;exitY=0;exitDx=40;exitDy=50;exitPerimeter=0;entryX=0;entryY=0;entryDx=27.665;entryDy=0;entryPerimeter=0;dashed=1;dashPattern=1 4;startArrow=openThin;startFill=0;endArrow=openThin;endFill=0;" parent="1" source="V5_xUwaxZERaxGhv1Ljz-161" target="V5_xUwaxZERaxGhv1Ljz-147" edge="1">
          <mxGeometry relative="1" as="geometry" />
        </mxCell>
        <mxCell id="V5_xUwaxZERaxGhv1Ljz-161" value="Replica" style="verticalAlign=top;align=left;spacingTop=8;spacingLeft=2;spacingRight=12;shape=cube;size=10;direction=south;fontStyle=4;html=1;whiteSpace=wrap;" parent="1" vertex="1">
          <mxGeometry x="365" y="322.5099999999999" width="90" height="40" as="geometry" />
        </mxCell>
        <mxCell id="V5_xUwaxZERaxGhv1Ljz-164" style="edgeStyle=orthogonalEdgeStyle;rounded=0;orthogonalLoop=1;jettySize=auto;html=1;entryX=0;entryY=0;entryDx=0;entryDy=65;entryPerimeter=0;dashed=1;dashPattern=1 4;" parent="1" target="V5_xUwaxZERaxGhv1Ljz-89" edge="1">
          <mxGeometry relative="1" as="geometry">
            <mxPoint x="540" y="130.05" as="sourcePoint" />
            <Array as="points">
              <mxPoint x="540" y="30.05000000000001" />
              <mxPoint x="95" y="30.05000000000001" />
            </Array>
          </mxGeometry>
        </mxCell>
        <mxCell id="V5_xUwaxZERaxGhv1Ljz-169" style="rounded=0;orthogonalLoop=1;jettySize=auto;html=1;exitX=0;exitY=0;exitDx=62.926164464215695;exitDy=60.00000000000001;exitPerimeter=0;entryX=0.003;entryY=0.508;entryDx=0;entryDy=0;entryPerimeter=0;endArrow=none;endFill=0;" parent="1" source="V5_xUwaxZERaxGhv1Ljz-144" target="V5_xUwaxZERaxGhv1Ljz-147" edge="1">
          <mxGeometry relative="1" as="geometry" />
        </mxCell>
        <mxCell id="V5_xUwaxZERaxGhv1Ljz-170" style="edgeStyle=orthogonalEdgeStyle;rounded=0;orthogonalLoop=1;jettySize=auto;html=1;exitX=0;exitY=0;exitDx=50;exitDy=60;exitPerimeter=0;endArrow=openThin;endFill=0;startArrow=openThin;startFill=0;dashed=1;dashPattern=1 4;" parent="1" source="V5_xUwaxZERaxGhv1Ljz-156" target="V5_xUwaxZERaxGhv1Ljz-161" edge="1">
          <mxGeometry relative="1" as="geometry" />
        </mxCell>
      </root>
    </mxGraphModel>
  </diagram>
</mxfile>
